<svg width="30" height="29" viewBox="0 0 30 29" fill="none" xmlns="http://www.w3.org/2000/svg">
<path d="M10.0343 22.8918C10.0343 23.0094 9.89516 23.1034 9.71976 23.1034C9.52016 23.1211 9.38105 23.027 9.38105 22.8918C9.38105 22.7742 9.52016 22.6802 9.69556 22.6802C9.87702 22.6625 10.0343 22.7566 10.0343 22.8918ZM8.15323 22.6273C8.11089 22.7448 8.23185 22.88 8.41331 22.9153C8.57056 22.9741 8.75202 22.9153 8.78831 22.7977C8.8246 22.6802 8.70968 22.5449 8.52823 22.492C8.37097 22.4509 8.19556 22.5097 8.15323 22.6273ZM10.8266 22.5273C10.6512 22.5685 10.5302 22.6802 10.5484 22.8154C10.5665 22.9329 10.7238 23.0094 10.9052 22.9682C11.0806 22.9271 11.2016 22.8154 11.1835 22.6978C11.1653 22.5861 11.002 22.5097 10.8266 22.5273ZM14.8065 0C6.41734 0 0 6.19031 0 14.3441C0 20.8636 4.22177 26.4425 10.252 28.406C11.0262 28.5413 11.2984 28.0768 11.2984 27.6947C11.2984 27.3302 11.2802 25.3197 11.2802 24.0852C11.2802 24.0852 7.04637 24.967 6.15726 22.3333C6.15726 22.3333 5.46774 20.6226 4.47581 20.1817C4.47581 20.1817 3.09073 19.2587 4.57258 19.2764C4.57258 19.2764 6.07863 19.3939 6.90726 20.7931C8.23185 23.0623 10.4516 22.4097 11.3165 22.0217C11.4556 21.0811 11.8488 20.4286 12.2843 20.0406C8.90323 19.6761 5.49194 19.1999 5.49194 13.5446C5.49194 11.928 5.95161 11.1167 6.91935 10.082C6.7621 9.69991 6.24798 8.12441 7.07661 6.09037C8.34072 5.70825 11.25 7.67763 11.25 7.67763C12.4597 7.34842 13.7601 7.17794 15.0484 7.17794C16.3367 7.17794 17.6371 7.34842 18.8468 7.67763C18.8468 7.67763 21.756 5.70237 23.0202 6.09037C23.8488 8.13029 23.3347 9.69991 23.1774 10.082C24.1452 11.1226 24.7379 11.9338 24.7379 13.5446C24.7379 19.2176 21.1754 19.6702 17.7944 20.0406C18.3508 20.505 18.8226 21.3868 18.8226 22.7683C18.8226 24.7495 18.8044 27.2009 18.8044 27.683C18.8044 28.0651 19.0827 28.5295 19.8508 28.3943C25.8992 26.4425 30 20.8636 30 14.3441C30 6.19031 23.1956 0 14.8065 0ZM5.87903 20.2758C5.8004 20.3345 5.81855 20.4698 5.92137 20.5815C6.01815 20.6755 6.15726 20.7167 6.23589 20.6402C6.31452 20.5815 6.29637 20.4462 6.19355 20.3345C6.09677 20.2405 5.95766 20.1993 5.87903 20.2758ZM5.22581 19.7996C5.18347 19.876 5.24395 19.9701 5.36492 20.0289C5.46169 20.0876 5.58266 20.07 5.625 19.9877C5.66734 19.9113 5.60685 19.8172 5.48589 19.7584C5.36492 19.7232 5.26815 19.7408 5.22581 19.7996ZM7.18548 21.8924C7.08871 21.9688 7.125 22.1452 7.26411 22.2569C7.40323 22.3921 7.57863 22.4097 7.65726 22.3157C7.73589 22.2393 7.6996 22.0629 7.57863 21.9512C7.44556 21.816 7.26411 21.7983 7.18548 21.8924ZM6.49597 21.0282C6.39919 21.087 6.39919 21.2399 6.49597 21.3751C6.59274 21.5103 6.75605 21.5691 6.83468 21.5103C6.93145 21.4339 6.93145 21.281 6.83468 21.1458C6.75 21.0106 6.59274 20.9518 6.49597 21.0282Z" fill="black"/>
</svg>
